<?xml version="1.0" encoding="utf-8"?>
<!-- Generator: Adobe Illustrator 21.1.0, SVG Export Plug-In . SVG Version: 6.00 Build 0)  -->
<svg version="1.1" id="Capa_1" xmlns="http://www.w3.org/2000/svg" xmlns:xlink="http://www.w3.org/1999/xlink" x="0px" y="0px"
	 viewBox="0 0 512 512" style="enable-background:new 0 0 512 512;" xml:space="preserve">
<path style="fill:#442200;" d="M404.1,88.7C403.9,70.7,389,56,371,56h-3.3l-11.8-17.9C340.2,14.3,313.7,0,285,0H196
	c-23.3,0-45.2,9-61.8,25.3c-16.6,16.3-25.9,38.2-26.2,61.4l-3.1,241.5c-0.2,12.3,4.5,23.8,13.1,32.5c8.6,8.7,20.1,13.5,32.3,13.5
	h211.5c12.3,0,23.7-4.8,32.3-13.5c8.6-8.7,13.2-20.3,13.1-32.5L404.1,88.7z"/>
<path style="fill:#2D1300;" d="M404.1,88.7C403.9,70.7,389,56,371,56h-3.3l-11.8-17.9C340.2,14.3,313.7,0,285,0h-22.9
	c28.6,0,55.1,14.3,70.9,38.2L344.8,56h3.3c18,0,32.9,14.6,33.1,32.7l3,239.6c0.2,12.2-4.5,23.8-13.1,32.5
	c-8.6,8.7-20.1,13.5-32.3,13.5h22.9c12.3,0,23.7-4.8,32.3-13.5c8.6-8.7,13.2-20.3,13.1-32.5L404.1,88.7z"/>
<path style="fill:#F0EEEE;" d="M203.1,363.4h105.9c41.6,0,75.4,33.7,75.4,75.4v65.7H127.7v-65.7
	C127.7,397.2,161.5,363.4,203.1,363.4z"/>
<path style="fill:#EF9AD3;" d="M308.9,355.9H203.1c-45.7,0-82.9,37.2-82.9,82.9v65.7c0,4.1,3.4,7.5,7.5,7.5h256.6
	c4.1,0,7.5-3.4,7.5-7.5v-65.7C391.8,393.1,354.6,355.9,308.9,355.9z"/>
<path style="fill:#D67ABC;" d="M308.9,355.9h-27.5c45.7,0,82.9,37.2,82.9,82.9v65.7c0,4.1-3.4,7.5-7.5,7.5h27.5
	c4.1,0,7.5-3.4,7.5-7.5v-65.7C391.8,393.1,354.6,355.9,308.9,355.9z"/>
<path style="fill:#F0EEEE;" d="M364.8,441.1l-29.3-96c-0.8-2.7-3.1-4.7-5.8-5.2l-37.7-7c-0.5-0.1-0.9-0.1-1.4-0.1h-69.3
	c-0.5,0-0.9,0-1.4,0.1l-37.7,7c-2.7,0.5-5,2.5-5.8,5.2l-29.3,96c-1,3.1,0.2,6.5,2.9,8.3c2.7,1.9,6.2,1.8,8.8-0.2l30.4-23.2
	l64.2,22.7c1.6,0.6,3.4,0.6,5,0l64.2-22.7l30.4,23.2c1.3,1,2.9,1.5,4.5,1.5c1.5,0,3-0.4,4.3-1.3
	C364.6,447.6,365.8,444.3,364.8,441.1z"/>
<path style="fill:#884130;" d="M313.9,363.6c-1.6-0.1-3.3-0.1-5-0.1h-11.1c0.2-1.7,0.3-3.3,0.3-5v-90.7h-84.2v90.7
	c0,1.7,0.1,3.4,0.3,5h-11.1c-1.7,0-3.3,0.1-5,0.1c-5,24.4,4.6,75.8,57.9,94.9C309.3,439.4,318.9,388,313.9,363.6z"/>
<path style="fill:#A1513D;" d="M125.8,224h49.4v56.6h-49.4c-15.6,0-28.3-12.7-28.3-28.3S110.2,224,125.8,224z"/>
<path style="fill:#884130;" d="M386.2,224h-49.4v56.6h49.4c15.6,0,28.3-12.7,28.3-28.3S401.8,224,386.2,224z"/>
<path style="fill:#B45F4A;" d="M368.1,171.7v59c0,61.9-50.2,112.1-112.1,112.1s-112.1-50.2-112.1-112.1V166H266
	c30.2,0,56.1-18.8,66.5-45.3C353.3,128.3,368.1,148.3,368.1,171.7z"/>
<path style="fill:#19303F;" d="M256,288.5c-13.5,0-26.1-6.6-33.8-17.7c-2.4-3.4-1.5-8.1,1.9-10.4c3.4-2.4,8.1-1.5,10.4,1.9
	c4.9,7.1,12.9,11.3,21.5,11.3c8.6,0,16.6-4.2,21.5-11.3c2.4-3.4,7-4.3,10.4-1.9c3.4,2.4,4.3,7,1.9,10.4
	C282.1,281.9,269.5,288.5,256,288.5z"/>
<path style="fill:#A1513D;" d="M368.1,230.7v-59c0-18.5-9.2-34.8-23.3-44.7v115.3c0,53.6-41.9,97.4-94.8,100.3c0,0,0,0,0,0
	c1,0.1,2,0.1,2.9,0.1c0,0,0,0,0.1,0c1,0,2,0,3,0c0,0,0,0,0,0C317.9,342.8,368.1,292.6,368.1,230.7z"/>
<g>
	<path style="fill:#19303F;" d="M310.3,227c-4.1,0-7.5-3.4-7.5-7.5v-2c0-4.1,3.4-7.5,7.5-7.5s7.5,3.4,7.5,7.5v2
		C317.8,223.6,314.5,227,310.3,227z"/>
	<path style="fill:#19303F;" d="M201.7,227c-4.1,0-7.5-3.4-7.5-7.5v-2c0-4.1,3.4-7.5,7.5-7.5s7.5,3.4,7.5,7.5v2
		C209.2,223.6,205.8,227,201.7,227z"/>
</g>
<g>
	<path style="fill:#F0EEEE;" d="M256,489.5c-0.5,0-1,0-1.5-0.1c-0.5-0.1-1-0.2-1.4-0.4c-0.4-0.2-0.9-0.4-1.3-0.7
		c-0.4-0.3-0.8-0.6-1.1-0.9c-0.4-0.3-0.7-0.7-0.9-1.1c-0.3-0.4-0.5-0.8-0.7-1.3c-0.2-0.5-0.3-0.9-0.4-1.4c-0.1-0.5-0.1-1-0.1-1.5
		s0.1-1,0.1-1.5c0.1-0.5,0.2-1,0.4-1.4c0.2-0.5,0.4-0.9,0.7-1.3c0.3-0.4,0.6-0.8,0.9-1.1c0.3-0.4,0.7-0.7,1.1-0.9
		c0.4-0.3,0.8-0.5,1.3-0.7c0.4-0.2,0.9-0.3,1.4-0.4c1-0.2,2-0.2,2.9,0c0.5,0.1,1,0.2,1.4,0.4c0.5,0.2,0.9,0.4,1.3,0.7
		c0.4,0.3,0.8,0.6,1.1,0.9c0.4,0.3,0.7,0.7,0.9,1.1c0.3,0.4,0.5,0.8,0.7,1.3c0.2,0.5,0.3,0.9,0.4,1.4c0.1,0.5,0.1,1,0.1,1.5
		s0,1-0.1,1.5c-0.1,0.5-0.2,1-0.4,1.4c-0.2,0.5-0.4,0.9-0.7,1.3c-0.3,0.4-0.6,0.8-0.9,1.1c-0.3,0.4-0.7,0.7-1.1,0.9
		c-0.4,0.3-0.8,0.5-1.3,0.7c-0.5,0.2-0.9,0.3-1.4,0.4C257,489.5,256.5,489.5,256,489.5z"/>
	<circle style="fill:#F0EEEE;" cx="387" cy="277.9" r="14.1"/>
	<circle style="fill:#F0EEEE;" cx="125" cy="277.9" r="14.1"/>
</g>
</svg>
